Coordinates
version=1
nRows=9
nColumns=36
inDegrees=yes

Units are S.I. units (second, meters, Newtons, ...)
If the header above contains a line with 'inDegrees', this indicates whether rotational values are in degrees (yes) or radians (no).

endheader
time	pelvis_tilt	pelvis_list	pelvis_rotation	pelvis_tx	pelvis_ty	pelvis_tz	hip_flexion_r	hip_adduction_r	hip_rotation_r	knee_angle_r	knee_angle_r_beta	ankle_angle_r	subtalar_angle_r	mtp_angle_r	hip_flexion_l	hip_adduction_l	hip_rotation_l	knee_angle_l	knee_angle_l_beta	ankle_angle_l	subtalar_angle_l	mtp_angle_l	lumbar_extension	lumbar_bending	lumbar_rotation	arm_flex_r	arm_add_r	arm_rot_r	elbow_flex_r	pro_sup_r	arm_flex_l	arm_add_l	arm_rot_l	elbow_flex_l	pro_sup_l
      1.11000000	    -12.90072027	     -0.97053263	     -2.46990262	     -0.55804602	      1.27312915	     -0.56531925	     39.09893349	     -6.99244157	     -0.99792621	     19.85776410	      0.34658337	    -20.78993769	     -5.94137981	     -6.78617619	     37.85033821	    -12.44018538	    -13.59524391	     21.53027428	      0.37577418	    -29.64743674	     -9.21925641	     -6.78617619	    -25.68410382	     -2.37712200	     -2.39237765	    -51.14541264	    -35.34656165	    -20.07857456	    112.78657535	    110.00078779	    -41.91848217	    -25.99179329	    -19.35018086	    131.68293383	    108.87137287
      1.12000000	    -12.31759068	     -0.96367839	     -2.58253374	     -0.54829331	      1.25121937	     -0.56466742	     39.30149958	     -6.99011926	     -0.50683468	     20.70758320	      0.36141551	    -21.91312061	     -7.64568734	     -6.81779204	     37.90274598	    -12.64066813	    -13.01622582	     22.18472104	      0.38719643	    -30.60492847	    -10.93697490	     -6.81779204	    -26.46071476	     -2.52138468	     -2.48383585	    -50.68237358	    -33.83931774	    -19.02238273	    111.20326681	    109.63253536	    -42.34858827	    -25.00451257	    -19.23831893	    130.65513832	    108.49296421
      1.13000000	    -11.89389868	     -1.00454979	     -2.52931169	     -0.53897779	      1.22802108	     -0.56423272	     39.90280789	     -7.03968949	     -0.02203980	     22.19555093	      0.38738544	    -22.82142420	     -9.24192367	     -6.85931583	     38.42294280	    -12.80799311	    -12.09933110	     23.50905374	      0.41031039	    -31.06087503	    -12.67704909	     -6.85931583	    -27.08559640	     -2.53579682	     -2.72513670	    -49.72304860	    -32.20825246	    -18.03891472	    109.41390873	    109.54753297	    -42.28212443	    -24.02138410	    -19.11386289	    129.57313947	    108.40062826
      1.14000000	    -11.50164525	     -1.02564420	     -2.58283862	     -0.52994000	      1.20370826	     -0.56353200	     40.78110828	     -6.99133524	      0.76533222	     24.24879776	      0.42322136	    -23.11736933	    -10.68172920	     -6.93751814	     39.20447824	    -13.06817851	    -11.09676645	     25.46575382	      0.44446125	    -31.44923266	    -14.03989992	     -6.93751814	    -27.65910109	     -2.59275017	     -2.87076509	    -48.36249336	    -30.47098706	    -17.27902072	    107.58989795	    110.28687471	    -41.69378961	    -23.07498860	    -18.90812777	    128.12936744	    109.20556527
      1.15000000	    -11.11964274	     -1.01968040	     -2.71338939	     -0.52117541	      1.17825891	     -0.56287519	     41.89873938	     -6.88951057	      1.81504121	     26.81869927	      0.46807460	    -22.99056746	    -11.80541046	     -6.97086518	     40.09763362	    -13.29697639	     -9.94108630	     27.49735550	      0.47991939	    -33.24804907	    -15.50240775	     -6.97086518	    -28.20994288	     -2.63531377	     -2.84036669	    -46.93213148	    -28.72620333	    -16.50059555	    105.96135868	    109.45308271	    -40.39271396	    -22.13353915	    -18.38647876	    126.74492250	    108.48729059
      1.16000000	    -10.67816257	     -1.06709377	     -2.77507559	     -0.51245122	      1.15188393	     -0.56217918	     43.06429259	     -6.79061491	      2.62323754	     29.63311938	      0.51719550	    -22.86352262	    -12.28617465	     -7.04183942	     41.04064265	    -13.53364389	     -8.81124982	     29.92243824	      0.52224507	    -34.54171825	    -17.22001188	     -7.04183942	    -28.75053179	     -2.60314058	     -2.97950356	    -44.86897317	    -26.87568824	    -16.10525458	    104.17309427	    110.47441938	    -38.89100040	    -21.48367860	    -18.00342055	    124.83156653	    109.77019688
      1.17000000	    -10.44302568	     -1.05132858	     -2.76903526	     -0.50410093	      1.12401135	     -0.56164291	     44.56452505	     -6.76008980	      3.41531880	     32.58532105	      0.56872114	    -23.35815805	    -13.34247461	     -7.08221210	     42.52226937	    -13.68468912	     -7.72940185	     34.14770366	      0.59598986	    -30.48642927	    -19.43995549	     -7.08221210	    -29.02268528	     -2.54199222	     -3.16165262	    -42.69241619	    -25.17174405	    -15.52495018	    102.62528919	    108.98479842	    -36.94847966	    -20.83602609	    -17.46189022	    123.19270317	    108.29655170
      1.18000000	    -10.35996220	     -1.11009576	     -2.79143879	     -0.49594896	      1.09457092	     -0.56097761	     46.37548113	     -6.69782182	      4.01273109	     36.32886506	      0.63405831	    -21.15784764	    -15.09396186	     -7.16453841	     44.64959775	    -14.00941683	     -6.52428136	     40.77728681	      0.71169791	    -18.75539586	    -19.97673020	     -7.16453841	    -29.04103391	     -2.38234763	     -3.06162641	    -40.55923388	    -23.30621288	    -15.37795679	    101.02537298	    110.16186957	    -34.55164448	    -20.36529682	    -16.91596350	    121.27126154	    108.89060449
      1.19000000	    -10.14644362	     -1.05776263	     -2.93375675	     -0.48821867	      1.06460718	     -0.56019485	     48.20375495	     -6.67450585	      4.90401747	     41.35268341	      0.72174048	    -13.44504359	    -16.00983334	     -7.21521295	     46.56419801	    -14.29990108	     -5.29259051	     47.58071626	      0.83044016	     -6.41390851	    -18.89035906	     -7.21521295	    -29.19361141	     -2.39940711	     -3.08712462	    -38.06166078	    -21.83210914	    -15.06571184	    100.12658815	    106.78660067	    -31.93059935	    -20.00639093	    -16.01605153	    120.05939619	    105.61096957
